<?xml version="1.0" encoding="UTF-8" standalone="no"?>
<!-- Created with Inkscape (http://www.inkscape.org/) -->

<svg
   xmlns:dc="http://purl.org/dc/elements/1.1/"
   xmlns:cc="http://creativecommons.org/ns#"
   xmlns:rdf="http://www.w3.org/1999/02/22-rdf-syntax-ns#"
   xmlns:svg="http://www.w3.org/2000/svg"
   xmlns="http://www.w3.org/2000/svg"
   xmlns:sodipodi="http://sodipodi.sourceforge.net/DTD/sodipodi-0.dtd"
   xmlns:inkscape="http://www.inkscape.org/namespaces/inkscape"
   version="1.1"
   id="svg12"
   width="153.60001"
   height="145.92"
   viewBox="0 0 153.60001 145.92"
   sodipodi:docname="Component 2.svg"
   inkscape:version="0.92.4 (5da689c313, 2019-01-14)">
  <metadata
     id="metadata18">
    <rdf:RDF>
      <cc:Work
         rdf:about="">
        <dc:format>image/svg+xml</dc:format>
        <dc:type
           rdf:resource="http://purl.org/dc/dcmitype/StillImage" />
        <dc:title></dc:title>
      </cc:Work>
    </rdf:RDF>
  </metadata>
  <defs
     id="defs16" />
  <sodipodi:namedview
     pagecolor="#ffffff"
     bordercolor="#666666"
     borderopacity="1"
     objecttolerance="10"
     gridtolerance="10"
     guidetolerance="10"
     inkscape:pageopacity="0"
     inkscape:pageshadow="2"
     inkscape:window-width="1366"
     inkscape:window-height="715"
     id="namedview14"
     showgrid="false"
     inkscape:zoom="2.2872424"
     inkscape:cx="-61.976175"
     inkscape:cy="45.452786"
     inkscape:window-x="-8"
     inkscape:window-y="-8"
     inkscape:window-maximized="1"
     inkscape:current-layer="svg12"
     inkscape:snap-grids="true" />
  <g
     id="g951">
    <rect
       ry="2.3692197e-13"
       y="-2.5276906"
       x="-293.33844"
       height="120.125"
       width="120.125"
       id="rect22"
       style="opacity:1;fill:#3dfff2;fill-opacity:1;fill-rule:nonzero;stroke:none;stroke-width:4.0569849;stroke-linecap:round;stroke-linejoin:round;stroke-miterlimit:4;stroke-dasharray:none;stroke-opacity:1;paint-order:stroke fill markers" />
    <g
       style="fill:#f412f2;fill-opacity:1;stroke:none"
       transform="translate(-53.776548,-19.674344)"
       id="g865">
      <path
         style="fill:#f412f2;fill-opacity:1;stroke:none;stroke-width:1px;stroke-linecap:butt;stroke-linejoin:miter;stroke-opacity:1"
         d="m -169.87932,62.13966 c 5.60837,-17.589314 14.19909,-8.674851 21.02237,0.463729 -1.78453,-8.931694 -2.44843,-22.937945 -11.74779,-22.258983 -11.68386,1.133559 -10.12066,12.932881 -9.27458,21.795254 z"
         id="path24"
         inkscape:connector-curvature="0"
         sodipodi:nodetypes="cccc" />
      <path
         style="fill:#f412f2;fill-opacity:1;stroke:none;stroke-width:1px;stroke-linecap:butt;stroke-linejoin:miter;stroke-opacity:1"
         d="m -192.649,62.260895 c -5.60837,-17.589314 -14.19909,-8.674851 -21.02237,0.463729 1.78453,-8.931694 2.44843,-22.937945 11.74779,-22.258983 11.68386,1.133559 10.12066,12.932881 9.27458,21.795254 z"
         id="path24-5"
         inkscape:connector-curvature="0"
         sodipodi:nodetypes="cccc" />
      <path
         style="fill:#f412f2;fill-opacity:1;stroke:none;stroke-width:1px;stroke-linecap:butt;stroke-linejoin:miter;stroke-opacity:1"
         d="m -225.59918,90.394619 c 29.49871,13.241721 59.11367,19.392401 89.19037,-2.623247 -7.91333,13.364108 -38.73249,20.436278 -44.15798,19.674348 -12.51229,0.3699 -32.89853,-8.634313 -45.03239,-17.051101 z"
         id="path50"
         inkscape:connector-curvature="0"
         sodipodi:nodetypes="cccc" />
    </g>
    <rect
       style="opacity:1;fill:#3dfff2;fill-opacity:1;fill-rule:nonzero;stroke:none;stroke-width:4.0569849;stroke-linecap:round;stroke-linejoin:round;stroke-miterlimit:4;stroke-dasharray:none;stroke-opacity:1;paint-order:stroke fill markers"
       id="rect931"
       width="120.125"
       height="120.125"
       x="-293.33844"
       y="-2.5276906"
       ry="2.3692197e-13" />
    <g
       id="g939"
       transform="translate(-53.776548,-16.376235)"
       style="fill:#f412f2;fill-opacity:1;stroke:none">
      <path
         sodipodi:nodetypes="cccc"
         inkscape:connector-curvature="0"
         id="path933"
         d="m -169.87932,62.13966 c 5.60837,-17.589314 14.19909,-8.674851 21.02237,0.463729 -1.78453,-8.931694 -2.44843,-22.937945 -11.74779,-22.258983 -11.68386,1.133559 -10.12066,12.932881 -9.27458,21.795254 z"
         style="fill:#f412f2;fill-opacity:1;stroke:none;stroke-width:1px;stroke-linecap:butt;stroke-linejoin:miter;stroke-opacity:1" />
      <path
         sodipodi:nodetypes="cccc"
         inkscape:connector-curvature="0"
         id="path935"
         d="m -192.649,62.260895 c -5.60837,-17.589314 -14.19909,-8.674851 -21.02237,0.463729 1.78453,-8.931694 2.44843,-22.937945 11.74779,-22.258983 11.68386,1.133559 10.12066,12.932881 9.27458,21.795254 z"
         style="fill:#f412f2;fill-opacity:1;stroke:none;stroke-width:1px;stroke-linecap:butt;stroke-linejoin:miter;stroke-opacity:1" />
      <path
         sodipodi:nodetypes="cccc"
         inkscape:connector-curvature="0"
         id="path937"
         d="m -225.59918,90.394619 c 29.49871,13.241721 59.11367,19.392401 89.19037,-2.623247 -7.91333,13.364108 -38.73249,20.436278 -44.15798,19.674348 -12.51229,0.3699 -32.89853,-8.634313 -45.03239,-17.051101 z"
         style="fill:#f412f2;fill-opacity:1;stroke:none;stroke-width:1px;stroke-linecap:butt;stroke-linejoin:miter;stroke-opacity:1" />
    </g>
  </g>
</svg>
